<svg width="96" height="96" viewBox="0 0 96 96" fill="none" xmlns="http://www.w3.org/2000/svg">
<path d="M33.6 73.68H61.2C62.32 73.68 63.26 73.44 64.02 72.96C64.78 72.48 65.44 71.76 66 70.8L75.36 48.96C75.52 48.56 75.66 47.96 75.78 47.16C75.9 46.36 75.96 45.76 75.96 45.36V42.48C75.96 41.36 75.7 40.54 75.18 40.02C74.66 39.5 73.84 39.24 72.72 39.24H47.04L50.52 22.68C50.68 22.04 50.68 21.44 50.52 20.88C50.36 20.32 50.08 19.84 49.68 19.44L47.16 16.8L27.84 37.68L26.88 39.6C26.56 40.24 26.4 40.92 26.4 41.64V66.48C26.4 68.32 27.12 69.98 28.56 71.46C30 72.94 31.68 73.68 33.6 73.68ZM48 96C41.44 96 35.24 94.74 29.4 92.22C23.56 89.7 18.46 86.26 14.1 81.9C9.74 77.54 6.3 72.44 3.78 66.6C1.26 60.76 0 54.56 0 48C0 41.36 1.26 35.12 3.78 29.28C6.3 23.44 9.74 18.36 14.1 14.04C18.46 9.72 23.56 6.3 29.4 3.78C35.24 1.26 41.44 0 48 0C54.64 0 60.88 1.26 66.72 3.78C72.56 6.3 77.64 9.72 81.96 14.04C86.28 18.36 89.7 23.44 92.22 29.28C94.74 35.12 96 41.36 96 48C96 54.56 94.74 60.76 92.22 66.6C89.7 72.44 86.28 77.54 81.96 81.9C77.64 86.26 72.56 89.7 66.72 92.22C60.88 94.74 54.64 96 48 96ZM48 88.8C59.36 88.8 69 84.82 76.92 76.86C84.84 68.9 88.8 59.28 88.8 48C88.8 36.64 84.84 27 76.92 19.08C69 11.16 59.36 7.2 48 7.2C36.72 7.2 27.1 11.16 19.14 19.08C11.18 27 7.2 36.64 7.2 48C7.2 59.28 11.18 68.9 19.14 76.86C27.1 84.82 36.72 88.8 48 88.8Z" fill="#808080"/>
</svg>
