<svg width="47" height="69" viewBox="0 0 47 69" fill="none" xmlns="http://www.w3.org/2000/svg">
<path d="M23.5 50.1975C29.5346 45.3675 34.0895 40.7244 37.1648 36.2681C40.2401 31.8119 41.7778 27.6575 41.7778 23.805C41.7778 20.4125 41.154 17.5375 39.9065 15.18C38.659 12.8225 37.1213 10.8962 35.2935 9.40125C33.4657 7.90625 31.4784 6.82812 29.3315 6.16687C27.1846 5.50562 25.2407 5.175 23.5 5.175C21.7593 5.175 19.8154 5.50562 17.6685 6.16687C15.5216 6.82812 13.5343 7.90625 11.7065 9.40125C9.87871 10.8962 8.34105 12.8225 7.09352 15.18C5.84599 17.5375 5.22222 20.4125 5.22222 23.805C5.22222 27.6575 6.75988 31.8119 9.83519 36.2681C12.9105 40.7244 17.4654 45.3675 23.5 50.1975ZM23.5 55.8037C23.0938 55.8037 22.7167 55.7606 22.3685 55.6744C22.0204 55.5881 21.7012 55.43 21.4111 55.2C14.158 49.6225 8.77623 44.2606 5.26574 39.1144C1.75525 33.9681 0 28.865 0 23.805C0 19.895 0.710803 16.4594 2.13241 13.4981C3.55401 10.5369 5.3963 8.05 7.65926 6.0375C9.92222 4.025 12.4463 2.51562 15.2315 1.50937C18.0167 0.503125 20.7728 0 23.5 0C26.2272 0 28.9833 0.503125 31.7685 1.50937C34.5537 2.51562 37.0778 4.025 39.3407 6.0375C41.6037 8.05 43.446 10.5369 44.8676 13.4981C46.2892 16.4594 47 19.895 47 23.805C47 28.865 45.2448 33.9681 41.7343 39.1144C38.2238 44.2606 32.842 49.6225 25.5889 55.2C25.2988 55.43 24.9796 55.5881 24.6315 55.6744C24.2833 55.7606 23.9062 55.8037 23.5 55.8037ZM23.5 29.325C25.1827 29.325 26.6188 28.7356 27.8083 27.5569C28.9978 26.3781 29.5926 24.955 29.5926 23.2875C29.5926 21.62 28.9978 20.1969 27.8083 19.0181C26.6188 17.8394 25.1827 17.25 23.5 17.25C21.8173 17.25 20.3812 17.8394 19.1917 19.0181C18.0022 20.1969 17.4074 21.62 17.4074 23.2875C17.4074 24.955 18.0022 26.3781 19.1917 27.5569C20.3812 28.7356 21.8173 29.325 23.5 29.325ZM2.61111 69C1.85679 69 1.23303 68.7556 0.739815 68.2669C0.246605 67.7781 0 67.16 0 66.4125C0 65.665 0.246605 65.0469 0.739815 64.5581C1.23303 64.0694 1.85679 63.825 2.61111 63.825H44.3889C45.1432 63.825 45.767 64.0694 46.2602 64.5581C46.7534 65.0469 47 65.665 47 66.4125C47 67.16 46.7534 67.7781 46.2602 68.2669C45.767 68.7556 45.1432 69 44.3889 69H2.61111Z" fill="#338DC3"/>
</svg>
