<svg width="22" height="24" viewBox="0 0 22 24" fill="none" xmlns="http://www.w3.org/2000/svg">
<g clip-path="url(#clip0_145_856)">
<path d="M20.8217 11.5963H19.4736V10.8845C19.4736 10.688 19.3227 10.5287 19.1365 10.5287H18.4624V8.74924C18.4624 4.43214 15.1362 0.919922 11.0476 0.919922C6.95907 0.919922 3.63283 4.43214 3.63283 8.74919V10.5286H2.95873C2.77261 10.5286 2.6217 10.688 2.6217 10.8845V11.5962H1.27355C1.08743 11.5962 0.936523 11.7556 0.936523 11.9521V16.5785C0.936523 16.775 1.08743 16.9343 1.27355 16.9343H2.6217V17.6461C2.6217 17.8426 2.77261 18.0019 2.95873 18.0019H4.98098C5.16714 18.0019 5.318 17.8426 5.318 17.6461V10.8845C5.318 10.688 5.1671 10.5286 4.98098 10.5286H4.30688V8.74919C4.30688 4.82459 7.33074 1.63165 11.0476 1.63165C14.7645 1.63165 17.7884 4.82459 17.7884 8.74919V10.5286H17.1143C16.9282 10.5286 16.7773 10.688 16.7773 10.8845V17.6462C16.7773 17.8427 16.9282 18.002 17.1143 18.002H17.7884V19.4255C17.7884 20.4067 17.0324 21.2049 16.1032 21.2049H12.7042C12.5432 20.1964 11.7108 19.4255 10.7106 19.4255C9.59555 19.4255 8.68836 20.3834 8.68836 21.5608C8.68836 22.7382 9.59551 23.6961 10.7106 23.6961C11.7108 23.6961 12.5432 22.9252 12.7042 21.9167H16.1032C17.4041 21.9167 18.4624 20.7992 18.4624 19.4255V18.002H19.1365C19.3227 18.002 19.4736 17.8427 19.4736 17.6462V16.9344H20.8217C21.0078 16.9344 21.1587 16.7751 21.1587 16.5786V11.9522C21.1587 11.7556 21.0078 11.5963 20.8217 11.5963ZM2.62166 16.2226H1.61058V12.308H2.62166V16.2226ZM4.64391 11.2403V17.2903H3.29575V11.2403H4.64391ZM10.7106 22.9843C9.96722 22.9843 9.36246 22.3458 9.36246 21.5608C9.36246 20.7759 9.96722 20.1373 10.7106 20.1373C11.454 20.1373 12.0588 20.7759 12.0588 21.5608C12.0588 22.3458 11.454 22.9843 10.7106 22.9843ZM18.7995 17.2903H17.4514V11.2403H18.7995V17.2903ZM20.4847 16.2226H19.4736V12.308H20.4847V16.2226Z" fill="#338DC3"/>
<path d="M11.0473 17.93V15.4389C11.0473 15.2423 10.8964 15.083 10.7103 15.083C10.5242 15.083 10.3733 15.2423 10.3733 15.4389V17.93C10.3733 18.1266 10.5242 18.2858 10.7103 18.2858C10.8964 18.2859 11.0473 18.1266 11.0473 17.93Z" fill="#338DC3"/>
<path d="M12.2269 18.7149C12.3434 18.7149 12.4566 18.6511 12.5191 18.5369L13.6987 16.3795C13.7918 16.2093 13.7365 15.9917 13.5754 15.8934C13.4142 15.7952 13.208 15.8535 13.115 16.0237L11.9353 18.181C11.8423 18.3512 11.8975 18.5689 12.0587 18.6671C12.1117 18.6995 12.1697 18.7149 12.2269 18.7149Z" fill="#338DC3"/>
<path d="M9.19384 18.7149C9.25102 18.7149 9.309 18.6995 9.36204 18.6672C9.52325 18.5689 9.5785 18.3513 9.48539 18.1811L8.30575 16.0237C8.21269 15.8534 8.00645 15.7952 7.84534 15.8935C7.68413 15.9917 7.62888 16.2094 7.72199 16.3796L8.90163 18.537C8.96405 18.6512 9.07732 18.7149 9.19384 18.7149Z" fill="#338DC3"/>
</g>
<defs>
<clipPath id="clip0_145_856">
<rect width="21.5704" height="22.7761" fill="white" transform="translate(0.262451 0.919922)"/>
</clipPath>
</defs>
</svg>
