<svg width="99" height="72" viewBox="0 0 99 72" fill="none" xmlns="http://www.w3.org/2000/svg">
<path d="M56.25 42.75C52.5 42.75 49.3125 41.4375 46.6875 38.8125C44.0625 36.1875 42.75 33 42.75 29.25C42.75 25.5 44.0625 22.3125 46.6875 19.6875C49.3125 17.0625 52.5 15.75 56.25 15.75C60 15.75 63.1875 17.0625 65.8125 19.6875C68.4375 22.3125 69.75 25.5 69.75 29.25C69.75 33 68.4375 36.1875 65.8125 38.8125C63.1875 41.4375 60 42.75 56.25 42.75ZM20.25 58.5C18.375 58.5 16.7812 57.8438 15.4688 56.5312C14.1562 55.2188 13.5 53.625 13.5 51.75V6.75C13.5 4.875 14.1562 3.28125 15.4688 1.96875C16.7812 0.65625 18.375 0 20.25 0H92.25C94.125 0 95.7188 0.65625 97.0312 1.96875C98.3438 3.28125 99 4.875 99 6.75V51.75C99 53.625 98.3438 55.2188 97.0312 56.5312C95.7188 57.8438 94.125 58.5 92.25 58.5H20.25ZM31.5 51.75H81C81 48.6 82.0875 45.9375 84.2625 43.7625C86.4375 41.5875 89.1 40.5 92.25 40.5V18C89.1 18 86.4375 16.9125 84.2625 14.7375C82.0875 12.5625 81 9.9 81 6.75H31.5C31.5 9.9 30.4125 12.5625 28.2375 14.7375C26.0625 16.9125 23.4 18 20.25 18V40.5C23.4 40.5 26.0625 41.5875 28.2375 43.7625C30.4125 45.9375 31.5 48.6 31.5 51.75ZM6.75 72C4.875 72 3.28125 71.3438 1.96875 70.0312C0.65625 68.7188 0 67.125 0 65.25V16.875C0 15.9 0.31875 15.0938 0.95625 14.4563C1.59375 13.8188 2.4 13.5 3.375 13.5C4.35 13.5 5.15625 13.8188 5.79375 14.4563C6.43125 15.0938 6.75 15.9 6.75 16.875V65.25H82.125C83.1 65.25 83.9062 65.5687 84.5438 66.2062C85.1813 66.8438 85.5 67.65 85.5 68.625C85.5 69.6 85.1813 70.4062 84.5438 71.0438C83.9062 71.6813 83.1 72 82.125 72H6.75ZM20.25 51.75V6.75V51.75Z" fill="#808080"/>
</svg>
