<svg width="18" height="18" viewBox="0 0 18 18" fill="none" xmlns="http://www.w3.org/2000/svg">
<path d="M17.5106 6.67651C17.511 6.54914 17.486 6.42297 17.4372 6.3053C17.3884 6.18762 17.3166 6.08079 17.2262 5.99098L12.3169 1.08812C12.1347 0.906617 11.8878 0.804688 11.6305 0.804688C11.3731 0.804688 11.1262 0.906617 10.944 1.08812V1.08816L6.05416 5.97149C5.40027 5.72723 3.40154 5.20691 1.28288 6.91379C1.17669 6.99921 1.08969 7.10598 1.02752 7.22717C0.965363 7.34837 0.929433 7.48127 0.922072 7.61724C0.91471 7.7532 0.936081 7.8892 0.984796 8.01638C1.03351 8.14356 1.10848 8.25908 1.20483 8.35543L5.34825 12.4934L2.34118 15.4965C2.31106 15.5264 2.28715 15.5621 2.27083 15.6013C2.2545 15.6405 2.24608 15.6826 2.24605 15.7251C2.24602 15.7675 2.25437 15.8096 2.27063 15.8488C2.28688 15.8881 2.31073 15.9238 2.34081 15.9538C2.37088 15.9838 2.40659 16.0077 2.44589 16.0239C2.48519 16.0402 2.52731 16.0485 2.56984 16.0485C2.61238 16.0484 2.65449 16.04 2.69377 16.0237C2.73305 16.0075 2.76872 15.9836 2.79876 15.9535L5.80586 12.9504L9.93328 17.0724C10.0235 17.1625 10.1306 17.234 10.2485 17.2828C10.3663 17.3316 10.4927 17.3567 10.6203 17.3567C10.6429 17.3567 10.6657 17.3559 10.6885 17.3543C10.8268 17.3446 10.9614 17.3054 11.0833 17.2393C11.2051 17.1732 11.3113 17.0817 11.3947 16.971C12.9988 14.8418 12.7302 13.1598 12.342 12.2397L17.2262 7.36208C17.3166 7.27227 17.3884 7.16543 17.4372 7.04775C17.486 6.93007 17.5109 6.80389 17.5106 6.67651ZM16.7686 6.90504L11.7253 11.9417C11.6772 11.9897 11.6455 12.0515 11.6346 12.1185C11.6238 12.1854 11.6342 12.2541 11.6646 12.3148C12.5081 13.9994 11.5335 15.7117 10.8776 16.5824C10.8497 16.6192 10.8142 16.6496 10.7735 16.6716C10.7328 16.6936 10.6879 16.7065 10.6418 16.7097C10.5957 16.7128 10.5494 16.706 10.5061 16.6897C10.4628 16.6735 10.4236 16.6481 10.3909 16.6154L1.6624 7.89838C1.63028 7.86614 1.60531 7.8275 1.58911 7.78499C1.57291 7.74248 1.56585 7.69704 1.56838 7.65163C1.57091 7.60622 1.58298 7.56184 1.60381 7.52139C1.62464 7.48094 1.65375 7.44532 1.68926 7.41684C2.73595 6.57359 3.74076 6.34854 4.51537 6.34854C5.02048 6.34128 5.52136 6.44145 5.98472 6.64239C6.04546 6.67273 6.11422 6.68321 6.18126 6.67234C6.24829 6.66148 6.31021 6.62983 6.35823 6.58188L11.4016 1.54517C11.4624 1.48466 11.5447 1.45069 11.6305 1.45069C11.7163 1.45069 11.7986 1.48466 11.8593 1.54517L16.7686 6.44803C16.7987 6.47803 16.8225 6.51365 16.8388 6.55286C16.8551 6.59207 16.8634 6.63409 16.8634 6.67653C16.8634 6.71897 16.8551 6.761 16.8388 6.8002C16.8225 6.83941 16.7987 6.87503 16.7686 6.90504Z" fill="#338DC3"/>
</svg>
