<svg width="97" height="62" viewBox="0 0 97 62" fill="none" xmlns="http://www.w3.org/2000/svg">
<path d="M20.9432 62C17.5629 62 14.697 60.819 12.3455 58.4571C9.99394 56.0952 8.81818 53.2167 8.81818 49.8214H6.61364C4.77652 49.8214 3.21496 49.1756 1.92898 47.8839C0.642992 46.5923 0 45.0238 0 43.1786V7.75C0 5.60952 0.75322 3.78274 2.25966 2.26964C3.7661 0.756547 5.58485 0 7.71591 0H68.4511C69.333 0 70.1964 0.184524 71.0415 0.553571C71.8866 0.922619 72.603 1.40238 73.1909 1.99286L95.0159 23.9143C95.6038 24.5048 96.0814 25.2244 96.4489 26.0732C96.8163 26.922 97 27.7893 97 28.675V43.1786C97 45.0238 96.357 46.5923 95.071 47.8839C93.785 49.1756 92.2235 49.8214 90.3864 49.8214H88.1818C88.1818 53.2167 87.0061 56.0952 84.6545 58.4571C82.303 60.819 79.4371 62 76.0568 62C72.6765 62 69.8106 60.819 67.4591 58.4571C65.1076 56.0952 63.9318 53.2167 63.9318 49.8214H33.0682C33.0682 53.2167 31.8924 56.0952 29.5409 58.4571C27.1894 60.819 24.3235 62 20.9432 62ZM61.7273 22.1429H83.1114L67.6796 6.64286H61.7273V22.1429ZM34.1705 22.1429H55.1136V6.64286H34.1705V22.1429ZM6.61364 22.1429H27.5568V6.64286H6.61364V22.1429ZM20.9432 56.4643C22.7803 56.4643 24.3419 55.8185 25.6278 54.5268C26.9138 53.2351 27.5568 51.6667 27.5568 49.8214C27.5568 47.9762 26.9138 46.4077 25.6278 45.1161C24.3419 43.8244 22.7803 43.1786 20.9432 43.1786C19.1061 43.1786 17.5445 43.8244 16.2585 45.1161C14.9725 46.4077 14.3295 47.9762 14.3295 49.8214C14.3295 51.6667 14.9725 53.2351 16.2585 54.5268C17.5445 55.8185 19.1061 56.4643 20.9432 56.4643ZM76.0568 56.4643C77.8939 56.4643 79.4555 55.8185 80.7415 54.5268C82.0275 53.2351 82.6705 51.6667 82.6705 49.8214C82.6705 47.9762 82.0275 46.4077 80.7415 45.1161C79.4555 43.8244 77.8939 43.1786 76.0568 43.1786C74.2197 43.1786 72.6581 43.8244 71.3722 45.1161C70.0862 46.4077 69.4432 47.9762 69.4432 49.8214C69.4432 51.6667 70.0862 53.2351 71.3722 54.5268C72.6581 55.8185 74.2197 56.4643 76.0568 56.4643ZM6.61364 43.1786H10.692C11.9413 41.2595 13.5028 39.8571 15.3767 38.9714C17.2506 38.0857 19.1061 37.6429 20.9432 37.6429C22.7803 37.6429 24.6358 38.0857 26.5097 38.9714C28.3835 39.8571 29.9451 41.2595 31.1943 43.1786H65.8057C67.0549 41.2595 68.6165 39.8571 70.4903 38.9714C72.3642 38.0857 74.2197 37.6429 76.0568 37.6429C77.8939 37.6429 79.7494 38.0857 81.6233 38.9714C83.4972 39.8571 85.0587 41.2595 86.308 43.1786H90.3864V28.7857H6.61364V43.1786ZM6.61364 28.7857H90.3864H10.692H6.61364Z" fill="#808080"/>
</svg>
